Coordinates
version=1
nRows=10
nColumns=22
inDegrees=yes

Units are S.I. units (second, meters, Newtons, ...)
If the header above contains a line with 'inDegrees', this indicates whether rotational values are in degrees (yes) or radians (no).

endheader
time	pelvis_tilt	pelvis_list	pelvis_rotation	pelvis_tx	pelvis_ty	pelvis_tz	hip_flexion_r	hip_adduction_r	hip_rotation_r	knee_angle_r	ankle_angle_r	subtalar_angle_r	hip_flexion_l	hip_adduction_l	hip_rotation_l	knee_angle_l	ankle_angle_l	subtalar_angle_l	lumbar_extension	lumbar_bending	lumbar_rotation
      0.01000000	     -2.14920197	      2.61679474	    175.77825226	      0.30486808	      0.93389780	      1.03149348	     -2.62387020	      1.12166266	     -2.41713759	     -7.34720205	      5.27063291	      3.19967102	     -3.02633852	     -7.26920879	    -14.07517103	     -9.52493488	      8.27015233	      1.45296664	     -5.56167129	     -0.06050287	     -0.34002447
      0.02000000	     -2.15083064	      2.59525733	    175.80183172	      0.30457477	      0.93387087	      1.03161531	     -2.64446537	      1.09341379	     -2.37996487	     -7.34985640	      5.27171785	      3.19799930	     -3.03422901	     -7.23996926	    -14.05678708	     -9.53858983	      8.32360496	      1.46935840	     -5.56301756	     -0.10141317	     -0.37644498
      0.03000000	     -2.14456278	      2.59928754	    175.81987128	      0.30421835	      0.93384243	      1.03171168	     -2.65746252	      1.09429613	     -2.37340376	     -7.36091821	      5.27362902	      3.19803948	     -3.04486033	     -7.24041145	    -14.05445666	     -9.54365688	      8.32676725	      1.47053648	     -5.55221041	     -0.11832376	     -0.37726767
      0.04000000	     -2.15773065	      2.56906048	    175.85486027	      0.30386293	      0.93382998	      1.03185417	     -2.69845921	      1.05513721	     -2.34636477	     -7.35819196	      5.31817494	      3.19987976	     -3.06635195	     -7.19941411	    -13.99574711	     -9.55597695	      8.37171814	      1.48444173	     -5.56813302	     -0.17605687	     -0.42618840
      0.05000000	     -2.15037420	      2.57475314	    175.86761563	      0.30348054	      0.93380740	      1.03193093	     -2.71181161	      1.05812498	     -2.34485424	     -7.36868266	      5.31997406	      3.20020969	     -3.07778412	     -7.20270717	    -13.99278585	     -9.56182316	      8.37272795	      1.48477136	     -5.55744248	     -0.19627842	     -0.42520941
      0.06000000	     -2.17012474	      2.54589754	    175.90214303	      0.30310112	      0.93381233	      1.03205394	     -2.75820522	      1.01964208	     -2.38670416	     -7.37062169	      5.37883134	      3.20965400	     -3.11024732	     -7.16417082	    -13.93001107	     -9.56854789	      8.40489709	      1.49347391	     -5.57915550	     -0.25837118	     -0.45774738
      0.07000000	     -2.16246901	      2.55304976	    175.90263882	      0.30271704	      0.93379793	      1.03211138	     -2.77165035	      1.02230102	     -2.38856434	     -7.37913324	      5.37890363	      3.21019685	     -3.12121322	     -7.16956814	    -13.92507883	     -9.58127252	      8.40468604	      1.49344137	     -5.56570009	     -0.27684895	     -0.45347017
      0.08000000	     -2.15772014	      2.54611157	    175.90429769	      0.30235403	      0.93377993	      1.03217443	     -2.78739502	      1.00862389	     -2.43040987	     -7.38224684	      5.39942337	      3.22240627	     -3.11505763	     -7.16322881	    -13.91219520	     -9.63098524	      8.43988287	      1.49865022	     -5.55812498	     -0.31518970	     -0.41807604
      0.09000000	     -2.14734301	      2.55056769	    175.89458953	      0.30196690	      0.93376150	      1.03222480	     -2.80201178	      1.00716867	     -2.44995446	     -7.37892282	      5.40830054	      3.22719085	     -3.11613467	     -7.16723447	    -13.90548878	     -9.66367683	      8.44976444	      1.50071999	     -5.53774318	     -0.33731782	     -0.38245548
      0.10000000	     -2.13578229	      2.55150525	    175.88021950	      0.30156991	      0.93373610	      1.03227463	     -2.81394160	      1.00140322	     -2.47046030	     -7.37837379	      5.42190886	      3.23399305	     -3.11444019	     -7.16789712	    -13.90900730	     -9.70319643	      8.47278661	      1.50526969	     -5.51272162	     -0.36270431	     -0.33703190
